<svg xmlns="http://www.w3.org/2000/svg" viewBox="0 0 360 60" fill="none">
  <!-- Logo Mark (small) -->
  <g transform="translate(0,2) scale(0.35)">
    <!-- Speed Lines - Dark Navy -->
    <rect x="18" y="52" width="50" height="7" rx="3.5" fill="#1B3A5C"/>
    <rect x="8" y="66" width="55" height="7" rx="3.5" fill="#1B3A5C"/>
    <rect x="18" y="80" width="50" height="7" rx="3.5" fill="#1B3A5C"/>
    <rect x="30" y="94" width="42" height="7" rx="3.5" fill="#1B3A5C"/>
    <!-- Speed Lines - Cyan -->
    <rect x="12" y="59" width="52" height="6" rx="3" fill="#3DD8D8"/>
    <rect x="5" y="73" width="58" height="6" rx="3" fill="#3DD8D8"/>
    <rect x="15" y="87" width="48" height="6" rx="3" fill="#3DD8D8"/>
    <rect x="28" y="101" width="38" height="6" rx="3" fill="#3DD8D8"/>
    <!-- Circle -->
    <circle cx="120" cy="78" r="58" stroke="#1B3A5C" stroke-width="10" fill="white"/>
    <clipPath id="circleClipFull">
      <circle cx="120" cy="78" r="53"/>
    </clipPath>
    <g clip-path="url(#circleClipFull)">
      <path d="M67 88 Q85 78 100 85 Q115 92 130 82 Q145 72 160 80 Q175 88 180 85 L180 140 L67 140 Z" fill="#3DD8D8"/>
      <path d="M67 95 Q85 85 100 92 Q120 102 140 88 Q155 78 175 90 L175 140 L67 140 Z" fill="#2CC5C5"/>
    </g>
    <circle cx="105" cy="100" r="4" fill="white" opacity="0.7"/>
    <circle cx="118" cy="110" r="2.5" fill="white" opacity="0.5"/>
    <text x="120" y="82" text-anchor="middle" font-family="Arial, sans-serif" font-weight="bold" font-size="22" fill="#1B3A5C">Flow</text>
  </g>

  <!-- "Flow" text -->
  <text x="72" y="38" font-family="Arial, Helvetica, sans-serif" font-weight="800" font-size="32" fill="#2D3748">Flow</text>
  <!-- "Clean" text -->
  <text x="142" y="38" font-family="Arial, Helvetica, sans-serif" font-weight="800" font-size="32" fill="#E67E22">Clean</text>

  <!-- Subtitle -->
  <text x="72" y="54" font-family="Arial, Helvetica, sans-serif" font-weight="400" font-size="11" letter-spacing="5" fill="#1B3A5C">L A U N D R Y  S E R V I C E</text>
</svg>